{
  "accessors": [
    {
      "bufferView": 0,
      "componentType": 5126,
      "count": 3000,
      "max": [
        0.0017019319348037243,
        0.000714463705662638,
        0.0005006474093534052
      ],
      "min": [
        -0.00012838889961130917,
        -0.0004990777233615518,
        -0.0002222024922957644
      ],
      "type": "VEC3"
    },
    {
      "bufferView": 1,
      "componentType": 5126,
      "count": 3000,
      "type": "VEC3"
    },
    {
      "bufferView": 2,
      "componentType": 5126,
      "count": 3000,
      "type": "VEC2"
    },
    {
      "bufferView": 3,
      "componentType": 5125,
      "count": 3000,
      "type": "SCALAR"
    }
  ],
  "asset": {
    "generator": "Prisma3D Pro",
    "version": "2.0"
  },
  "bufferViews": [
    {
      "buffer": 0,
      "byteLength": 36000,
      "target": 34962
    },
    {
      "buffer": 1,
      "byteLength": 36000,
      "target": 34962
    },
    {
      "buffer": 2,
      "byteLength": 24000,
      "target": 34962
    },
    {
      "buffer": 3,
      "byteLength": 12000,
      "target": 34963
    }
  ],
  "buffers": [
    {
      "byteLength": 36000,
      "uri": "data:application/octet-stream;base64,"
    },
    {
      "byteLength": 36000,
      "uri": "data:application/octet-stream;base64,"
    },
    {
      "byteLength": 24000,
      "uri": "data:application/octet-stream;base64,"
    },
    {
      "byteLength": 12000,
      "uri": "data:application/octet-stream;base64,"
    }
  ],
  "materials": [
    {
      "doubleSided": true,
      "pbrMetallicRoughness": {
        "baseColorFactor": [
          0.9254902005195618,
          0.9411764740943909,
          0.9450980424880981,
          1.0
        ]
      }
    }
  ],
  "meshes": [
    {
      "primitives": [
        {
          "attributes": {
            "NORMAL": 1,
            "POSITION": 0,
            "TEXCOORD_0": 2
          },
          "indices": 3,
          "material": 0,
          "mode": 4
        }
      ]
    }
  ],
  "nodes": [
    {
      "children": [
        1
      ],
      "name": "Rec room",
      "rotation": [
        0.0,
        -0.0,
        -0.0,
        1.0
      ],
      "scale": [
        1.0,
        1.0,
        1.0
      ],
      "translation": [
        -0.0021355762146413326,
        -2.545661459407711e-10,
        0.0
      ]
    },
    {
      "mesh": 0,
      "name": "HandL_1",
      "rotation": [
        -0.7069110870361328,
        0.010358095169067383,
        -0.010355085134506226,
        0.7071507573127747
      ],
      "scale": [
        99.99999237060547,
        100.00000762939453,
        99.9999771118164
      ],
      "translation": [
        -0.04672374576330185,
        -0.023054497316479683,
        0.029400618746876717
      ]
    }
  ],
  "scenes": [
    {
      "nodes": [
        0
      ]
    }
  ]
}
