{
  "accessors": [
    {
      "bufferView": 0,
      "componentType": 5126,
      "count": 3000,
      "max": [
        0.0009988679084926844,
        0.0007144628325477242,
        0.0005272424314171076
      ],
      "min": [
        -0.0008187478524632752,
        -0.000499079586006701,
        -0.00023115916701499373
      ],
      "type": "VEC3"
    },
    {
      "bufferView": 1,
      "componentType": 5126,
      "count": 3000,
      "type": "VEC3"
    },
    {
      "bufferView": 2,
      "componentType": 5126,
      "count": 3000,
      "type": "VEC2"
    },
    {
      "bufferView": 3,
      "componentType": 5125,
      "count": 3000,
      "type": "SCALAR"
    }
  ],
  "asset": {
    "generator": "Prisma3D Pro",
    "version": "2.0"
  },
  "bufferViews": [
    {
      "buffer": 0,
      "byteLength": 36000,
      "target": 34962
    },
    {
      "buffer": 1,
      "byteLength": 36000,
      "target": 34962
    },
    {
      "buffer": 2,
      "byteLength": 24000,
      "target": 34962
    },
    {
      "buffer": 3,
      "byteLength": 12000,
      "target": 34963
    }
  ],
  "buffers": [
    {
      "byteLength": 36000,
      "uri": "data:application/octet-stream;base64,"
    },
    {
      "byteLength": 36000,
      "uri": "data:application/octet-stream;base64,"
    },
    {
      "byteLength": 24000,
      "uri": "data:application/octet-stream;base64,"
    },
    {
      "byteLength": 12000,
      "uri": "data:application/octet-stream;base64,"
    }
  ],
  "materials": [
    {
      "doubleSided": true,
      "pbrMetallicRoughness": {
        "baseColorFactor": [
          0.9254902005195618,
          0.9411764740943909,
          0.9450980424880981,
          1.0
        ]
      }
    }
  ],
  "meshes": [
    {
      "primitives": [
        {
          "attributes": {
            "NORMAL": 1,
            "POSITION": 0,
            "TEXCOORD_0": 2
          },
          "indices": 3,
          "material": 0,
          "mode": 4
        }
      ]
    }
  ],
  "nodes": [
    {
      "children": [
        1
      ],
      "name": "Rec room",
      "rotation": [
        0.0,
        -0.0,
        -0.0,
        1.0
      ],
      "scale": [
        1.0,
        1.0,
        1.0
      ],
      "translation": [
        -0.0021355762146413326,
        -2.545661459407711e-10,
        0.0
      ]
    },
    {
      "mesh": 0,
      "name": "Rec Room Right hand",
      "rotation": [
        -0.7069866061210632,
        0.0008417963981628418,
        -0.0008504986763000488,
        0.7072259187698364
      ],
      "scale": [
        99.99998474121094,
        99.9999771118164,
        99.99995422363281
      ],
      "translation": [
        -0.021271254867315292,
        -0.023390352725982666,
        0.029402131214737892
      ]
    }
  ],
  "scenes": [
    {
      "nodes": [
        0
      ]
    }
  ]
}
