{
  "accessors": [
    {
      "bufferView": 0,
      "componentType": 5126,
      "count": 3780,
      "max": [
        0.0011609079083427787,
        0.0015519370790570974,
        0.001598389120772481
      ],
      "min": [
        -0.0011608497006818652,
        -0.0014028449077159166,
        -0.0015770351747050881
      ],
      "type": "VEC3"
    },
    {
      "bufferView": 1,
      "componentType": 5126,
      "count": 3780,
      "type": "VEC3"
    },
    {
      "bufferView": 2,
      "componentType": 5126,
      "count": 3780,
      "type": "VEC2"
    },
    {
      "bufferView": 3,
      "componentType": 5125,
      "count": 3780,
      "type": "SCALAR"
    }
  ],
  "asset": {
    "generator": "Prisma3D Pro",
    "version": "2.0"
  },
  "bufferViews": [
    {
      "buffer": 0,
      "byteLength": 45360,
      "target": 34962
    },
    {
      "buffer": 1,
      "byteLength": 45360,
      "target": 34962
    },
    {
      "buffer": 2,
      "byteLength": 30240,
      "target": 34962
    },
    {
      "buffer": 3,
      "byteLength": 15120,
      "target": 34963
    }
  ],
  "buffers": [
    {
      "byteLength": 45360,
      "uri": "data:application/octet-stream;base64,"
    },
    {
      "byteLength": 45360,
      "uri": "data:application/octet-stream;base64,"
    },
    {
      "byteLength": 30240,
      "uri": "data:application/octet-stream;base64,"
    },
    {
      "byteLength": 15120,
      "uri": "data:application/octet-stream;base64,"
    }
  ],
  "materials": [
    {
      "doubleSided": true,
      "pbrMetallicRoughness": {
        "baseColorFactor": [
          0.9254902005195618,
          0.9411764740943909,
          0.9450980424880981,
          1.0
        ]
      }
    }
  ],
  "meshes": [
    {
      "primitives": [
        {
          "attributes": {
            "NORMAL": 1,
            "POSITION": 0,
            "TEXCOORD_0": 2
          },
          "indices": 3,
          "material": 0,
          "mode": 4
        }
      ]
    }
  ],
  "nodes": [
    {
      "children": [
        1
      ],
      "name": "Rec room head",
      "rotation": [
        0.0,
        -0.0,
        -0.0,
        1.0
      ],
      "scale": [
        1.0,
        1.0,
        1.0
      ],
      "translation": [
        -0.0021355762146413326,
        -2.545661459407711e-10,
        0.0
      ]
    },
    {
      "mesh": 0,
      "name": "Head",
      "rotation": [
        0.7069846987724304,
        7.104935231458647e-15,
        7.102482224043399e-15,
        -0.7072288393974304
      ],
      "scale": [
        100.0,
        100.0,
        100.0
      ],
      "translation": [
        -2.86102294921875e-06,
        0.013459745794534683,
        0.01851167529821396
      ]
    }
  ],
  "scenes": [
    {
      "nodes": [
        0
      ]
    }
  ]
}
