{
  "accessors": [
    {
      "bufferView": 0,
      "componentType": 5126,
      "count": 1572,
      "max": [
        0.0016215159557759762,
        0.0009798976825550199,
        0.002303419169038534
      ],
      "min": [
        -0.0016220235265791416,
        -0.0010070581920444965,
        -0.0035444723907858133
      ],
      "type": "VEC3"
    },
    {
      "bufferView": 1,
      "componentType": 5126,
      "count": 1572,
      "type": "VEC3"
    },
    {
      "bufferView": 2,
      "componentType": 5126,
      "count": 1572,
      "type": "VEC2"
    },
    {
      "bufferView": 3,
      "componentType": 5125,
      "count": 1572,
      "type": "SCALAR"
    }
  ],
  "asset": {
    "generator": "Prisma3D Pro",
    "version": "2.0"
  },
  "bufferViews": [
    {
      "buffer": 0,
      "byteLength": 18864,
      "target": 34962
    },
    {
      "buffer": 1,
      "byteLength": 18864,
      "target": 34962
    },
    {
      "buffer": 2,
      "byteLength": 12576,
      "target": 34962
    },
    {
      "buffer": 3,
      "byteLength": 6288,
      "target": 34963
    }
  ],
  "buffers": [
    {
      "byteLength": 18864,
      "uri": "data:application/octet-stream;base64,"
    },
    {
      "byteLength": 18864,
      "uri": "data:application/octet-stream;base64,"
    },
    {
      "byteLength": 12576,
      "uri": "data:application/octet-stream;base64,"
    },
    {
      "byteLength": 6288,
      "uri": "data:application/octet-stream;base64,"
    }
  ],
  "materials": [
    {
      "doubleSided": true,
      "pbrMetallicRoughness": {
        "baseColorFactor": [
          0.9254902005195618,
          0.9411764740943909,
          0.9450980424880981,
          1.0
        ]
      }
    }
  ],
  "meshes": [
    {
      "primitives": [
        {
          "attributes": {
            "NORMAL": 1,
            "POSITION": 0,
            "TEXCOORD_0": 2
          },
          "indices": 3,
          "material": 0,
          "mode": 4
        }
      ]
    }
  ],
  "nodes": [
    {
      "children": [
        1
      ],
      "name": "Rec room body",
      "rotation": [
        0.0,
        -0.0,
        -0.0,
        1.0
      ],
      "scale": [
        1.0,
        1.0,
        1.0
      ],
      "translation": [
        -0.0,
        0.0,
        0.0
      ]
    },
    {
      "mesh": 0,
      "name": "Body",
      "rotation": [
        0.7069846987724304,
        -0.0,
        -0.0,
        -0.7072288393974304
      ],
      "scale": [
        100.0,
        99.99999237060547,
        99.99999237060547
      ],
      "translation": [
        2.5378092686878517e-05,
        0.09134581685066223,
        -0.0048531824722886086
      ]
    }
  ],
  "scenes": [
    {
      "nodes": [
        0
      ]
    }
  ]
}
